<?xml version="1.0"?>
<svg xmlns="http://www.w3.org/2000/svg" xml:space="preserve" style="enable-background:new 0 0 350 350" viewBox="0 0 350 350">
  <path d="M123.327 146.863H60.236V69.571c0-17.152 13.905-31.057 31.057-31.057h.978c17.152 0 31.056 13.905 31.056 31.057v77.292z" style="fill:#26486c"/>
  <path d="m134.032 129.717-28.614-11.367c-4.326-2.082-5.207-7.889-1.616-11.217l3.843-3.485c5.004-4.558 8.131-10.814 8.847-17.516l1.698-15.819c0-1.25.09-2.591 0-3.932-.005-.076-.016-.152-.022-.227-5.969-.616-11.652-3.208-16.019-7.53-7.921 6.731-18.177 10.795-29.431 10.795-1.765 0-4.965-.217-7.606-.65.01.831.088 1.597.172 2.438l1.609 15.014c.714 6.703 3.842 12.958 8.847 17.516l3.754 3.486c3.506 3.088 2.799 8.593-1.025 10.907l-29.167 11.587a15.322 15.322 0 0 0-9.665 14.24h104.06c0-6.28-3.83-11.922-9.665-14.24z" style="fill:#f5ddab"/>
  <path d="M135.973 164.186a8.126 8.126 0 0 0 8.126-8.126v-11.892a15.455 15.455 0 0 0-9.741-14.353l-25.098-9.964-14.576 16.38a4.067 4.067 0 0 1-6.052.02l-14.698-16.35-24.955 9.914a15.455 15.455 0 0 0-9.742 14.353v11.892a8.126 8.126 0 0 0 8.126 8.126h88.61z" style="fill:#cbc8d6"/>
  <path d="m299.524 129.717-28.613-11.367c-4.326-2.081-5.208-7.889-1.617-11.217l3.843-3.485c5.005-4.558 8.132-10.814 8.847-17.516l1.698-15.819c0-1.251.09-2.591 0-3.932-.446-6.256-3.485-12.601-7.953-17.159-.447-.447-.894-.893-1.43-1.34-1.966-1.698-4.111-3.039-6.435-3.932-19.482-7.686-37.445 6.702-37.267 24.665 0 .894.09 1.698.18 2.592l1.608 15.014c.715 6.703 3.843 12.958 8.847 17.516l3.754 3.486c3.506 3.088 2.8 8.593-1.025 10.907l-29.167 11.587a15.322 15.322 0 0 0-9.665 14.239l52.145 16.882 51.915-16.882c0-6.278-3.83-11.921-9.665-14.239z" style="fill:#cca18c"/>
  <path d="M275.823 49.222c-7.775 12.154-21.359 20.197-36.909 20.197-1.926 0-5.63-.268-8.311-.804-.179-17.963 17.784-32.352 37.267-24.666 2.949 1.162 5.54 2.95 7.864 5.362l.09-.089z" style="fill:#f2ce58"/>
  <path d="M283.631 66.38c-8.222-.535-15.997-5.004-20.465-12.6-.894-1.43-1.52-2.95-2.145-4.469 4.111-2.502 8.937-2.86 13.227-1.43.536.447.983.894 1.43 1.341 4.468 4.558 7.507 10.903 7.953 17.159z" style="fill:#f2ce58"/>
  <path d="M211.974 84.617h-74.166a3 3 0 1 1 0-6h74.166a3 3 0 1 1 0 6zM113.798 258.155a2.998 2.998 0 0 1-2.594-1.488L71.07 187.932a3 3 0 0 1 5.182-3.025l40.134 68.735a3 3 0 0 1-2.588 4.513zM233.534 258.155a3 3 0 0 1-2.588-4.513l40.135-68.735a3 3 0 1 1 5.182 3.025l-40.135 68.735a3 3 0 0 1-2.594 1.488z" style="fill:#26486c"/>
  <path d="M300.96 163.419a8.126 8.126 0 0 0 8.126-8.126v-11.7a15.306 15.306 0 0 0-9.647-14.215l-24.856-9.868c-7.049 14.561-27.758 14.652-34.935.153l-.05-.103-24.716 9.818a15.306 15.306 0 0 0-9.647 14.215v11.7a8.126 8.126 0 0 0 8.126 8.126h87.6z" style="fill:#a5e7fb"/>
  <path d="M116.113 142.223v-15.092a3 3 0 1 0-6 0v15.092a6.976 6.976 0 0 0-3.983 6.298 6.983 6.983 0 1 0 13.966 0c0-2.78-1.63-5.174-3.983-6.298zM74.339 133.508v-6.377a3 3 0 1 0-6 0v6.377c-5.762 1.36-10.067 6.534-10.067 12.705v6.004a3 3 0 1 0 6 0v-6.004c0-3.7 2.86-6.739 6.483-7.037.19.037.384.059.584.059s.394-.022.583-.059c3.624.298 6.483 3.337 6.483 7.037v6.004a3 3 0 1 0 6 0v-6.004c0-6.171-4.305-11.344-10.066-12.705z" style="fill:#26486c"/>
  <path d="m225.91 270.12-34.49-13.7c-5.214-2.51-6.277-9.51-1.949-13.522l4.633-4.2c6.032-5.495 9.801-13.035 10.664-21.114l2.047-19.067c0-1.509.108-3.124 0-4.74-.539-7.54-4.201-15.19-9.587-20.683-.539-.539-1.078-1.077-1.724-1.616-2.37-2.047-4.955-3.662-7.756-4.74-23.484-9.264-45.136 8.08-44.92 29.732 0 1.077.107 2.047.215 3.124l1.94 18.097c.86 8.08 4.631 15.62 10.664 21.114l4.524 4.201c4.227 3.723 3.374 10.358-1.235 13.148l-35.158 13.966a18.468 18.468 0 0 0-11.65 17.164l63.167 16.934 62.265-16.934c0-7.568-4.617-14.37-11.65-17.164z" style="fill:#93613c"/>
  <path d="M228.735 312.244c5.41 0 9.795-4.385 9.795-9.795v-14.52c0-7.683-4.69-14.59-11.832-17.434l-30.484-12.103-18.194 31.915c-1.406 2.466-4.958 2.473-6.374.013l-18.34-31.866-30.312 12.04a18.772 18.772 0 0 0-11.832 17.435v14.52c0 5.41 4.385 9.795 9.795 9.795h107.778z" style="fill:#a3e5fb"/>
  <path d="M257.16 160.416a3 3 0 0 1-3-3v-20.335a3 3 0 1 1 6 0v20.335a3 3 0 0 1-3 3z" style="fill:#26486c"/>
  <path d="M289.27 149.863h-16.457a3 3 0 1 1 0-6h16.458a3 3 0 1 1 0 6z" style="fill:#fb687d"/>
  <path d="M281.041 158.092a3 3 0 0 1-3-3v-16.458a3 3 0 1 1 6 0v16.458a3 3 0 0 1-3 3z" style="fill:#fb687d"/>
  <path d="M206.935 193.885c-.354-4.85-1.99-9.748-4.544-14.09a34.39 34.39 0 0 0-5.08-6.668c-.545-.536-1.08-1.081-1.731-1.617a28.362 28.362 0 0 0-1.564-1.25 28.847 28.847 0 0 0-.472-.352c-.046-.032-.09-.068-.136-.1v.008c-1.767-1.263-3.633-2.308-5.615-3.07-12-4.732-23.518-2.54-31.91 3.616l-.002-.01c-.152.112-.296.233-.446.347-.22.167-.439.335-.654.507a32.73 32.73 0 0 0-1.233 1.043c-.172.152-.343.304-.512.46-.248.23-.491.467-.733.705-.13.129-.263.254-.391.385-.358.364-.707.737-1.046 1.118-.104.116-.202.237-.304.354-.244.282-.485.565-.718.855-.127.156-.249.315-.372.474a32.546 32.546 0 0 0-.96 1.296c-.2.287-.395.578-.586.872-.098.15-.198.297-.293.448a31.919 31.919 0 0 0-4.924 17.376c0 1.081.105 2.057.22 3.138l.478 4.458c5.963-5.864 9.705-12.426 11.515-19.123 13.705 6.114 27.749 5.294 39.302-.255 1.83 6.965 5.742 13.791 12.07 19.846l.64-6.007c0-1.521.106-3.138 0-4.764zM207.416 279.411c.86.138 1.738-.11 2.402-.673l6.217-5.259a3 3 0 0 0-3.875-4.581l-5.17 4.373-10.804-1.696a3.002 3.002 0 0 0-3.465 3.006l.146 10.472-18.021 15.16-18.022-15.16.148-10.472a3.003 3.003 0 0 0-3.465-3.006l-10.806 1.696-5.17-4.373a2.999 2.999 0 1 0-3.875 4.581l6.217 5.259a2.994 2.994 0 0 0 2.402.673l8.647-1.357-.117 8.338c-.013.9.38 1.758 1.068 2.337l20.592 17.324a2.988 2.988 0 0 0 1.93.704c.151 0 .3-.026.45-.048.15.022.3.048.452.048.682 0 1.367-.231 1.93-.704l20.591-17.324a3.002 3.002 0 0 0 1.069-2.337l-.116-8.338 8.645 1.357zM216.321 297.446h-13.54a3 3 0 1 0 0 6h13.54a3 3 0 1 0 0-6z" style="fill:#26486c"/>
</svg>
