<?xml version="1.0"?>
<svg xmlns="http://www.w3.org/2000/svg" xml:space="preserve" id="Layer_1" x="0" y="0" style="enable-background:new 0 0 350 350" viewBox="0 0 350 350">
  <path d="M302.652 89.462h-70.87v-9.105c0-17.861-14.531-32.392-32.393-32.392h-51.5c-17.863 0-32.393 14.53-32.393 32.392v9.105H44.625a8 8 0 0 0-8 8v175.181a8 8 0 0 0 8 8h258.027a8 8 0 0 0 8-8V97.462a8 8 0 0 0-8-8zm-162.936-9.225c0-6.758 5.498-12.256 12.256-12.256h43.334c6.757 0 12.256 5.498 12.256 12.256v9.225h-67.846v-9.225z" style="fill:#92603e"/>
  <path d="M254.544 187.386H92.55c-21.308 0-40.77-10.805-52.06-28.905a3 3 0 0 1 5.09-3.176c10.188 16.331 27.747 26.081 46.97 26.081h161.993c19.038 0 36.507-9.607 46.728-25.698a3 3 0 0 1 5.065 3.217c-11.329 17.834-30.69 28.481-51.793 28.481z" style="fill:#26486c"/>
  <path d="M237.567 213.259c-8.98 0-16.259-7.28-16.259-16.26v-30.555a8 8 0 0 1 8-8h16.518a8 8 0 0 1 8 8V197c0 8.98-7.28 16.259-16.259 16.259zM109.71 213.259c-8.98 0-16.259-7.28-16.259-16.26v-30.555a8 8 0 0 1 8-8h16.518a8 8 0 0 1 8 8V197c0 8.98-7.28 16.259-16.259 16.259z" style="fill:#ccc9d7"/>
  <path d="M109.71 200.344a3 3 0 0 1-3-3v-12.958a3 3 0 0 1 6 0v12.958a3 3 0 0 1-3 3zM237.567 200.344a3 3 0 0 1-3-3v-12.958a3 3 0 0 1 6 0v12.958a3 3 0 0 1-3 3zM133.054 92.462h-11.547a3 3 0 0 1 0-6h11.547a3 3 0 0 1 0 6zM225.54 92.462h-11.546a3 3 0 0 1 0-6h11.547a3 3 0 0 1 0 6z" style="fill:#26486c"/>
</svg>
