<?xml version="1.0"?>
<svg xmlns="http://www.w3.org/2000/svg" xml:space="preserve" style="enable-background:new 0 0 350 350" viewBox="0 0 350 350">
  <g style="enable-background:new">
    <path d="M291.477 95.118v59.908c0 72.076-48.302 132.865-114.279 151.74a8.091 8.091 0 0 1-2.198.304v-268c2.147 0 4.294.679 6.107 2.036 30.173 22.523 65.46 38.561 103.807 46.058 3.808.75 6.563 4.073 6.563 7.954z" style="fill:#a3e5fb"/>
  </g>
  <path d="M58.523 95.118v59.908c0 72.076 48.302 132.865 114.279 151.74a8.091 8.091 0 0 0 2.198.304v-268c-2.147 0-4.294.679-6.107 2.036-30.173 22.523-65.46 38.561-103.807 46.058-3.808.75-6.563 4.073-6.563 7.954z" style="fill:#2b93ea"/>
  <path d="M195.819 271.957c-1.092-1.989-.372-4.504 1.619-5.597a4.128 4.128 0 0 1 5.606 1.619 4.132 4.132 0 0 1-1.628 5.607v-.011a4.045 4.045 0 0 1-1.979.516 4.135 4.135 0 0 1-3.618-2.134zm-46.663 1.598a4.14 4.14 0 0 1-1.618-5.608 4.132 4.132 0 0 1 5.608-1.618 4.13 4.13 0 0 1 1.617 5.598 4.113 4.113 0 0 1-3.617 2.133c-.671 0-1.35-.165-1.99-.505zm68.876-15.647a4.125 4.125 0 0 1 6.391-5.216 4.135 4.135 0 0 1-.588 5.803 4.137 4.137 0 0 1-2.607.928 4.106 4.106 0 0 1-3.196-1.515zm-91.275.546h-.01c-1.762-1.443-2.02-4.04-.577-5.803s4.041-2.031 5.804-.587a4.122 4.122 0 0 1 .576 5.803 4.113 4.113 0 0 1-5.793.587zm110.437-18.502a4.132 4.132 0 0 1-.597-5.804v.011a4.124 4.124 0 0 1 5.803-.608 4.134 4.134 0 0 1 .598 5.803c-.815 1-2 1.526-3.206 1.526a4.097 4.097 0 0 1-2.598-.928zm-129.598-.65a4.125 4.125 0 0 1 .608-5.803 4.127 4.127 0 0 1 5.195 6.412 4.137 4.137 0 0 1-5.803-.609zm144.555-20.903a4.123 4.123 0 1 1 5.524-1.866 4.112 4.112 0 0 1-3.7 2.288 4.147 4.147 0 0 1-1.824-.422zm-159.224-1.928a4.129 4.129 0 0 1 1.876-5.525 4.128 4.128 0 0 1 5.526 1.876c.999 2.041.165 4.515-1.877 5.515a3.986 3.986 0 0 1-1.823.432 4.136 4.136 0 0 1-3.702-2.298zm169.026-22.399c-2.205-.546-3.566-2.772-3.02-4.978.546-2.216 2.773-3.577 4.979-3.031 2.216.547 3.577 2.773 3.03 4.989a4.132 4.132 0 0 1-3.999 3.144c-.33 0-.66-.041-.99-.124zm-178.271-3.081a4.126 4.126 0 0 1 3.02-4.99 4.133 4.133 0 0 1 4.99 3.031 4.137 4.137 0 0 1-3.032 4.989c-.319.072-.65.113-.98.113a4.113 4.113 0 0 1-3.998-3.143zm182.745-22.76a4.117 4.117 0 0 1-3.927-4.309 4.139 4.139 0 0 1 4.318-3.927 4.13 4.13 0 0 1 3.917 4.319 4.121 4.121 0 0 1-4.112 3.927c-.063 0-.134 0-.196-.01zm-186.528-3.979a4.134 4.134 0 0 1 3.927-4.319c2.267-.103 4.195 1.66 4.309 3.927a4.134 4.134 0 0 1-3.928 4.319h-.195a4.122 4.122 0 0 1-4.113-3.927zm182.766-26.419a4.121 4.121 0 0 1 4.123-4.123c2.278 0 4.123 1.845 4.123 4.123a4.123 4.123 0 1 1-8.246 0zm-182.941-.051a4.122 4.122 0 0 1 4.123-4.123c2.277 0 4.123 1.845 4.123 4.123s-1.846 4.123-4.123 4.123a4.122 4.122 0 0 1-4.123-4.123zm182.941-26.233a4.121 4.121 0 0 1 4.123-4.123 4.122 4.122 0 0 1 4.123 4.123 4.122 4.122 0 0 1-4.123 4.123 4.121 4.121 0 0 1-4.123-4.123zm-182.941-.052a4.123 4.123 0 1 1 8.246 0 4.123 4.123 0 1 1-8.246 0zm164.655-5.793a4.128 4.128 0 0 1-2.949-5.03 4.12 4.12 0 0 1 5.03-2.948 4.119 4.119 0 0 1 2.949 5.031 4.119 4.119 0 0 1-5.03 2.947zm-143.102-2.958a4.135 4.135 0 0 1 2.947-5.03 4.114 4.114 0 0 1 5.031 2.948 4.123 4.123 0 0 1-7.978 2.082zm117.632-5.195a4.125 4.125 0 0 1-2.351-5.34 4.11 4.11 0 0 1 5.329-2.35 4.115 4.115 0 0 1 2.351 5.33 4.11 4.11 0 0 1-5.329 2.36zm-92.461-2.381a4.115 4.115 0 0 1 2.351-5.33 4.126 4.126 0 0 1 5.339 2.351 4.14 4.14 0 0 1-2.361 5.34 4.11 4.11 0 0 1-5.329-2.36zm68.165-9.246a4.12 4.12 0 0 1-1.443-5.649 4.115 4.115 0 0 1 5.649-1.443 4.105 4.105 0 0 1 1.443 5.638 4.117 4.117 0 0 1-5.649 1.454zm-44.189-1.474a4.12 4.12 0 0 1 1.443-5.649 4.12 4.12 0 0 1 5.648 1.443 4.12 4.12 0 0 1-3.545 6.226 4.124 4.124 0 0 1-3.546-2.02z" style="fill:#26486c"/>
  <path d="M174.563 116.712a3 3 0 0 0 3-3V57.886a3 3 0 1 0-6 0v55.826a3 3 0 0 0 3 3zM174.563 234.71a3 3 0 0 0-3 3v60.575a3 3 0 1 0 6 0V237.71a3 3 0 0 0-3-3zM207.895 134.307h-65.527c-4.411 0-8 3.589-8 8v49.113c0 4.411 3.589 8 8 8h10v15.608c0 5.355 6.482 8.027 10.256 4.23l19.713-19.838h25.558c4.41 0 8-3.589 8-8v-49.113c0-4.411-3.59-8-8-8z" style="fill:#26476d"/>
</svg>
