<?xml version="1.0"?>
<svg xmlns="http://www.w3.org/2000/svg" xml:space="preserve" style="enable-background:new 0 0 350 350" viewBox="0 0 350 350">
  <path d="M280.57 45.112H82.215a8 8 0 0 0-8 8v112.552a8 8 0 0 0 8 8H280.57a8 8 0 0 0 8-8V53.112a8 8 0 0 0-8-8zM280.57 182.757H82.215a8 8 0 0 0-8 8v111.355H288.57V190.757a8 8 0 0 0-8-8z" style="fill:#a3e5fb"/>
  <path d="M315.868 305.112H48.24a3 3 0 1 1 0-6h267.63a3 3 0 1 1 0 6zM169.442 123.483h-67.658a3 3 0 1 1 0-6h67.658a3 3 0 1 1 0 6zM212.837 123.483h-29.148a3 3 0 1 1 0-6h29.148a3 3 0 1 1 0 6zM114.492 146.036h-12.708a3 3 0 1 1 0-6h12.708a3 3 0 1 1 0 6zM170.69 146.036h-42.607a3 3 0 1 1 0-6h42.606a3 3 0 1 1 0 6zM262.622 123.483h-35.446a3 3 0 1 1 0-6h35.446a3 3 0 1 1 0 6zM226.849 146.036h-41.74a3 3 0 1 1 0-6h41.74a3 3 0 1 1 0 6z" style="fill:#26476d"/>
  <circle cx="113.148" cy="84.258" r="16.602" style="fill:#2c8eeb"/>
  <path d="M254.622 258.982H104.546a8 8 0 0 1-8-8V212.25a8 8 0 0 1 8-8h150.076a8 8 0 0 1 8 8v38.732a8 8 0 0 1-8 8z" style="fill:#fc687c"/>
  <path d="M230.283 283.547h-52.056a3 3 0 1 1 0-6h52.056a3 3 0 1 1 0 6zM166.39 283.547h-29.215a3 3 0 1 1 0-6h29.216a3 3 0 1 1 0 6zM125.263 283.547H99.969a3 3 0 1 1 0-6h25.294a3 3 0 1 1 0 6z" style="fill:#26476d"/>
</svg>
